<?xml version="1.0" encoding="UTF-8"?>
<svg version="1.1" xmlns="http://www.w3.org/2000/svg" width="275" height="183">
<path d="M0 0 C90.75 0 181.5 0 275 0 C275 60.39 275 120.78 275 183 C184.25 183 93.5 183 0 183 C0 122.61 0 62.22 0 0 Z " fill="#FDFDFD" transform="translate(0,0)"/>
<path d="M0 0 C22.73734321 0.46222514 45.46258785 1.11184435 68.1875 2 C69.27487457 2.04179382 70.36224915 2.08358765 71.48257446 2.12664795 C83.00415112 2.57220309 94.50681426 3.05179641 106 4 C105.61220711 14.5907576 104.69901289 25.00708381 103.30419922 35.51171875 C101.92084107 46.15242307 100.86584262 56.82263145 99.8125 67.5 C99.72205414 68.41581848 99.63160828 69.33163696 99.53842163 70.27520752 C99.02159404 75.51641687 98.50903126 80.75802798 98 86 C97.15856445 85.89977539 96.31712891 85.79955078 95.45019531 85.69628906 C91.38363047 85.21277461 87.31685943 84.73102932 83.25 84.25 C82.49636169 84.16074249 81.74272339 84.07148499 80.96624756 83.97952271 C72.1245139 82.93375253 63.28101445 81.91072262 54.4296875 80.94921875 C53.65384811 80.86488586 52.87800873 80.78055298 52.07865906 80.69366455 C50.92295158 80.56807159 50.92295158 80.56807159 49.74389648 80.43994141 C36.48028583 78.9982788 23.26961813 77.43920291 10.09326172 75.32470703 C4.41126314 74.44331467 -1.29755175 73.73440621 -7 73 C-7.22490809 64.80096962 -6.52098645 56.77629295 -5.6875 48.625 C-5.55196598 47.26980338 -5.41671672 45.91457825 -5.28173828 44.55932617 C-4.93220849 41.0685746 -4.57538143 37.57861551 -4.21539307 34.08892822 C-4.00241499 32.02342112 -3.79089246 29.95776894 -3.57958984 27.89208984 C-3.18378734 24.03162156 -2.7805503 20.17195742 -2.375 16.3125 C-2.25213623 15.13187988 -2.12927246 13.95125977 -2.00268555 12.73486328 C-1.88578369 11.64286621 -1.76888184 10.55086914 -1.6484375 9.42578125 C-1.54708496 8.47098877 -1.44573242 7.51619629 -1.34130859 6.5324707 C-1.03884105 4.28819614 -0.60309618 2.18005491 0 0 Z " fill="#FDFDFD" transform="translate(116,26)"/>
<path d="M0 0 C5.5947236 0.96672848 11.20681924 1.76613269 16.83129883 2.53613281 C17.64515045 2.64764679 18.45900208 2.75916077 19.29751587 2.87405396 C23.45598984 3.44197282 27.61532673 4.00281379 31.77563477 4.55712891 C33.32024122 4.76620142 34.864838 4.97534545 36.40942383 5.18457031 C37.13458694 5.27925598 37.85975006 5.37394165 38.60688782 5.47149658 C43.63617799 6.15741822 43.63617799 6.15741822 44.74926758 7.27050781 C46.41543873 7.31114613 48.08314853 7.31322881 49.74926758 7.27050781 C49.41926758 7.93050781 49.08926758 8.59050781 48.74926758 9.27050781 C48.08926758 9.27050781 47.42926758 9.27050781 46.74926758 9.27050781 C46.74926758 9.93050781 46.74926758 10.59050781 46.74926758 11.27050781 C46.10989258 11.37363281 45.47051758 11.47675781 44.81176758 11.58300781 C44.13114258 11.80988281 43.45051758 12.03675781 42.74926758 12.27050781 C42.25426758 13.75550781 42.25426758 13.75550781 41.74926758 15.27050781 C37.29212472 19.27050781 37.29212472 19.27050781 34.74926758 19.27050781 C34.74926758 19.93050781 34.74926758 20.59050781 34.74926758 21.27050781 C31.10509018 23.69995941 29.03685486 23.43230356 24.74926758 23.27050781 C25.73926758 24.26050781 26.72926758 25.25050781 27.74926758 26.27050781 C21.30865187 26.48921725 15.44249863 25.65645096 9.12426758 24.45800781 C1.28786267 23.02644779 -6.53633345 21.77838867 -14.43823242 20.77050781 C-24.81833136 19.43313692 -35.01922423 17.45663266 -45.25073242 15.27050781 C-45.25073242 14.94050781 -45.25073242 14.61050781 -45.25073242 14.27050781 C-43.60073242 14.27050781 -41.95073242 14.27050781 -40.25073242 14.27050781 C-40.25073242 13.61050781 -40.25073242 12.95050781 -40.25073242 12.27050781 C-41.24073242 12.27050781 -42.23073242 12.27050781 -43.25073242 12.27050781 C-43.58073242 11.28050781 -43.91073242 10.29050781 -44.25073242 9.27050781 C-43.92073242 8.94050781 -43.59073242 8.61050781 -43.25073242 8.27050781 C-44.90073242 7.94050781 -46.55073242 7.61050781 -48.25073242 7.27050781 C-48.25073242 6.94050781 -48.25073242 6.61050781 -48.25073242 6.27050781 C-46.27073242 5.61050781 -44.29073242 4.95050781 -42.25073242 4.27050781 C-43.57073242 3.61050781 -44.89073242 2.95050781 -46.25073242 2.27050781 C-46.25073242 1.61050781 -46.25073242 0.95050781 -46.25073242 0.27050781 C-47.24073242 -0.05949219 -48.23073242 -0.38949219 -49.25073242 -0.72949219 C-48.59073242 -1.71949219 -47.93073242 -2.70949219 -47.25073242 -3.72949219 C-48.24073242 -4.05949219 -49.23073242 -4.38949219 -50.25073242 -4.72949219 C-38.83623327 -10.43674176 -12.41441671 -2.19960135 0 0 Z " fill="#505257" transform="translate(156.250732421875,112.7294921875)"/>
<path d="M0 0 C27.7062893 -0.23379317 55.37113229 -0.03704439 83.0625 0.875 C84.99497589 0.9339444 84.99497589 0.9339444 86.9664917 0.99407959 C90.61485143 1.10757115 94.26243872 1.23480569 97.91015625 1.3671875 C99.55506294 1.41734009 99.55506294 1.41734009 101.23320007 1.46850586 C102.23140274 1.50838623 103.22960541 1.5482666 104.25805664 1.58935547 C105.13015274 1.62044403 106.00224884 1.65153259 106.90077209 1.68356323 C109 2 109 2 111 4 C111.85638739 11.75030042 110.63870037 19.77697686 109.7578125 27.48046875 C109.62937958 28.65096268 109.50094666 29.8214566 109.36862183 31.02742004 C108.95968677 34.74809232 108.54295126 38.46783066 108.125 42.1875 C107.58184574 47.05554425 107.04289843 51.92403112 106.5078125 56.79296875 C106.31134125 58.57246414 106.31134125 58.57246414 106.11090088 60.38790894 C105.12164672 69.49879161 104.31406298 78.6173391 103.6399231 87.75688171 C103.56909515 88.68442764 103.49826721 89.61197357 103.42529297 90.56762695 C103.36663055 91.37923782 103.30796814 92.19084869 103.24752808 93.02705383 C103 95 103 95 102 97 C100.7625 96.71125 99.525 96.4225 98.25 96.125 C93.1845272 95.10774979 88.14468798 94.58391878 83.0078125 94.11328125 C71.84082138 93.04125993 60.73935258 91.57610184 49.625 90.0625 C47.73441638 89.80763554 45.84379139 89.5530778 43.953125 89.29882812 C39.25734807 88.66642348 34.56222838 88.02929569 29.86737061 87.3901062 C26.89951326 86.98632876 23.9314584 86.58402574 20.96337891 86.18188477 C19.00162078 85.91557764 17.03986925 85.64922183 15.078125 85.3828125 C14.18227692 85.26152481 13.28642883 85.14023712 12.36343384 85.01527405 C5.56229228 84.08976377 -1.2212095 83.07777969 -8 82 C-8.21007521 71.97757828 -7.59954453 62.22040942 -6.50390625 52.265625 C-6.34882871 50.81074584 -6.19429333 49.3558088 -6.04026794 47.90081787 C-5.71948262 44.88518959 -5.39382582 41.87014424 -5.06420898 38.85546875 C-4.64168455 34.98942155 -4.22931395 31.12237255 -3.82019138 27.25488663 C-3.50330508 24.26579475 -3.18241104 21.27714455 -2.86015129 18.28862762 C-2.70649635 16.86134847 -2.55380657 15.43396508 -2.40210152 14.00647736 C-2.19067493 12.0250564 -1.9735325 10.04424784 -1.75610352 8.06347656 C-1.57290306 6.37475433 -1.57290306 6.37475433 -1.38600159 4.6519165 C-1 2 -1 2 0 0 Z M2 4 C0.28304968 12.59251493 -0.7079135 21.15126443 -1.5 29.875 C-1.62760827 31.2483285 -1.75562384 32.62161922 -1.8840332 33.99487305 C-2.07644343 36.05527918 -2.26831737 38.11572494 -2.45808411 40.17637634 C-2.83184075 44.23294463 -3.22455469 48.28700641 -3.63671875 52.33984375 C-3.77787109 53.74484131 -3.77787109 53.74484131 -3.921875 55.17822266 C-4.09164088 56.86183834 -4.26451148 58.54514575 -4.44140625 60.22802734 C-4.99538859 65.83112888 -5.08622836 71.37157303 -5 77 C-4.24203125 77.09796875 -3.4840625 77.1959375 -2.703125 77.296875 C3.62031783 78.12664804 9.93691415 78.98486078 16.24609375 79.91796875 C29.14847839 81.81913874 42.03983393 83.51378938 55.01342773 84.84863281 C64.93694138 85.87100056 74.84359092 87.01291516 84.75 88.1875 C85.5161261 88.27821777 86.2822522 88.36893555 87.07159424 88.46240234 C91.38130137 88.97294135 95.69076164 89.48551687 100 90 C100.07072723 89.29637329 100.14145447 88.59274658 100.21432495 87.86779785 C100.88872514 81.16202435 101.56500714 74.45644287 102.24328423 67.75106049 C102.59173717 64.30565704 102.93951964 60.86018894 103.28564453 57.41455078 C106.10781868 29.3273674 106.10781868 29.3273674 107.67236328 18.11132812 C108.02938194 14.72098104 108.05541382 11.40660521 108 8 C86.89909917 6.52265192 65.78529858 5.63976347 44.64576721 4.94179535 C42.63520482 4.87533731 40.62466934 4.80810639 38.61413574 4.74078369 C34.776698 4.61337596 30.93916719 4.48945507 27.1015625 4.3671875 C25.95879852 4.32978455 24.81603455 4.29238159 23.63864136 4.25384521 C16.42332641 4.03139314 9.21859326 3.95694676 2 4 Z " fill="#1C1C1D" transform="translate(114,22)"/>
<path d="M0 0 C5.06743471 -0.14097837 9.74634041 0.36624561 14.69921875 1.34375 C23.50655304 2.98686453 32.34169252 4.12963464 41.23522949 5.19198608 C45.63851637 5.71823028 50.0400414 6.25872597 54.44140625 6.80078125 C55.2900827 6.90518021 56.13875916 7.00957916 57.01315308 7.11714172 C63.85576638 7.96617372 70.6704522 8.94866897 77.47753906 10.046875 C81.48595523 10.67777904 85.47684915 11.16075453 89.51953125 11.51953125 C90.44540039 11.60178955 91.37126953 11.68404785 92.32519531 11.76879883 C94.09821848 11.91855382 95.87235021 12.0559124 97.64746094 12.1784668 C98.82937012 12.27575073 98.82937012 12.27575073 100.03515625 12.375 C100.7300415 12.42398438 101.42492676 12.47296875 102.14086914 12.5234375 C104.47725094 13.12233668 105.4523912 14.19440611 107 16 C105.625 18 105.625 18 104 20 C103.34 20 102.68 20 102 20 C102 20.66 102 21.32 102 22 C100.75 23.26171875 100.75 23.26171875 99 24.6875 C98.35160156 25.22503906 97.70320312 25.76257813 97.03515625 26.31640625 C96.36355469 26.87199219 95.69195312 27.42757812 95 28 C93.80874657 29.03737214 92.62136798 30.07920733 91.4375 31.125 C87.09381492 34.93732166 82.69475322 38.68382803 78.29711914 42.43359375 C73.80110308 46.27988251 69.41523392 50.22403119 65.0859375 54.2578125 C60.95139906 57.71100378 58.38776542 58.26808311 53 57.8125 C47.48748196 57.29627757 42.37263842 56.18629707 37.0390625 54.74609375 C34.00111558 54.00027388 31.03848513 53.52897449 27.9375 53.125 C11.40518716 50.9170421 -4.97983612 47.52756557 -21.24853516 43.88452148 C-30.25385954 41.89006951 -39.31498902 40.23019961 -48.39453125 38.61132812 C-49.48765625 38.41474609 -50.58078125 38.21816406 -51.70703125 38.015625 C-52.6813208 37.84321289 -53.65561035 37.67080078 -54.65942383 37.49316406 C-57 37 -57 37 -59 36 C-59 35.34 -59 34.68 -59 34 C-58.42894531 34.10022461 -57.85789063 34.20044922 -57.26953125 34.30371094 C-45.89361913 36.29766056 -34.51391581 38.26910358 -23.125 40.1875 C-22.14660156 40.35411133 -21.16820312 40.52072266 -20.16015625 40.69238281 C-15.89578641 41.40653278 -11.67526126 42.05015301 -7.3671875 42.42578125 C-4.31732001 42.7370609 -1.71201704 43.36106972 1.16796875 44.40625 C7.37310757 46.6240051 13.82568909 47.4661124 20.3125 48.5 C27.44209692 49.64695124 34.49595057 50.80185964 41.48828125 52.625 C47.92121506 54.29675699 55.91990772 56.20462772 62.08203125 52.875 C63.87936703 51.38941421 63.87936703 51.38941421 66 49 C66.66 49 67.32 49 68 49 C68.33 46.69 68.66 44.38 69 42 C64.65005187 39.39003112 59.99823188 39 55 39 C53.515 38.505 53.515 38.505 52 38 C52 36.35 52 34.7 52 33 C50.68 32.34 49.36 31.68 48 31 C52.72266202 31.54492254 57.38096882 32.2321907 62.0625 33.0625 C66.46925296 33.81650716 70.53929609 34.20275927 75 34 C73.68 33.01 72.36 32.02 71 31 C71.61488281 31.01160156 72.22976562 31.02320313 72.86328125 31.03515625 C74.07564453 31.04869141 74.07564453 31.04869141 75.3125 31.0625 C76.11300781 31.07410156 76.91351563 31.08570313 77.73828125 31.09765625 C80.16861334 31.09657855 80.16861334 31.09657855 83 30 C83 29.34 83 28.68 83 28 C84.42578125 26.81640625 84.42578125 26.81640625 86.3125 25.5625 C88.27931244 24.24716841 89.95706785 23.04439456 91.60546875 21.33984375 C93 20 93 20 95 20 C95 19.34 95 18.68 95 18 C95.99 17.505 95.99 17.505 97 17 C94.03 17.495 94.03 17.495 91 18 C91 17.34 91 16.68 91 16 C90.42831589 15.9189653 89.85663177 15.8379306 89.2676239 15.75444031 C83.21437523 14.89610553 77.16143011 14.03565275 71.10864258 13.17407227 C68.86197203 12.85453938 66.6152294 12.53551284 64.3684082 12.21704102 C52.64173487 10.55451867 40.91989101 8.88029973 29.22843933 6.98344421 C15.6790233 4.65675027 15.6790233 4.65675027 2 4 C1.34 5.32 0.68 6.64 0 8 C2.12780579 10.34058637 4.11562221 11.70700306 7 13 C6.34 13.66 5.68 14.32 5 15 C5 15.99 5 16.98 5 18 C5 18.99 5 19.98 5 21 C5.99 21 6.98 21 8 21 C8 21.66 8 22.32 8 23 C0.20318282 24.64402584 -6.76571235 23.06769927 -14.5 21.5625 C-15.81229406 21.31595859 -17.12479329 21.0705066 -18.4375 20.82617188 C-21.62717765 20.22810732 -24.81435292 19.61911307 -28 19 C-28 18.34 -28 17.68 -28 17 C-25.75268555 15.39599609 -25.75268555 15.39599609 -22.63671875 13.5234375 C-21.52232422 12.853125 -20.40792969 12.1828125 -19.25976562 11.4921875 C-18.38058472 10.97156738 -18.38058472 10.97156738 -17.48364258 10.44042969 C-15.69945959 9.38209415 -13.92465398 8.30923789 -12.15039062 7.234375 C-3.38432825 2 -3.38432825 2 0 2 C0 1.34 0 0.68 0 0 Z " fill="#EDEEF3" transform="translate(108,104)"/>
<path d="M0 0 C9.89313782 0.3314284 19.58641135 1.55537041 29.375 3 C30.59421143 3.17821289 31.81342285 3.35642578 33.06958008 3.54003906 C41.87149423 4.87149423 41.87149423 4.87149423 43 6 C44.66617115 6.04063832 46.33388095 6.042721 48 6 C47.67 6.66 47.34 7.32 47 8 C46.34 8 45.68 8 45 8 C45 8.66 45 9.32 45 10 C44.360625 10.103125 43.72125 10.20625 43.0625 10.3125 C42.381875 10.539375 41.70125 10.76625 41 11 C40.67 11.99 40.34 12.98 40 14 C35.54285714 18 35.54285714 18 33 18 C33 18.66 33 19.32 33 20 C29.3558226 22.4294516 27.28758728 22.16179575 23 22 C23.99 22.99 24.98 23.98 26 25 C20.47322267 25.19392201 16.24385089 24.7479503 11 23 C11.66 21.68 12.32 20.36 13 19 C10.69 18.67 8.38 18.34 6 18 C6.33 17.34 6.66 16.68 7 16 C7.66 16 8.32 16 9 16 C9 15.34 9 14.68 9 14 C8.01 13.67 7.02 13.34 6 13 C6.66 12.67 7.32 12.34 8 12 C9.26465269 8.5 9.26465269 8.5 8 5 C7.34 4.67 6.68 4.34 6 4 C6.33 6.64 6.66 9.28 7 12 C6.34 12 5.68 12 5 12 C5 11.34 5 10.68 5 10 C4.34 10 3.68 10 3 10 C3.34444881 12.47266765 3.34444881 12.47266765 4 15 C4.66 15.33 5.32 15.66 6 16 C4 18 4 18 1.375 18.125 C0.59125 18.08375 -0.1925 18.0425 -1 18 C-1 15.35945505 -0.64892216 13.51457338 0 11 C0 10.34 0 9.68 0 9 C-0.45375 9.66 -0.9075 10.32 -1.375 11 C-1.91125 11.66 -2.4475 12.32 -3 13 C-3.66 13 -4.32 13 -5 13 C-5 13.66 -5 14.32 -5 15 C-4.34 15.33 -3.68 15.66 -3 16 C-5.07553648 16.5534764 -6.84365964 17 -9 17 C-8.67 15.68 -8.34 14.36 -8 13 C-9.98 14.32 -11.96 15.64 -14 17 C-14 16.34 -14 15.68 -14 15 C-14.99 14.67 -15.98 14.34 -17 14 C-16.2575 13.896875 -15.515 13.79375 -14.75 13.6875 C-11.8136843 12.95342107 -10.33891712 11.85500323 -8 10 C-7.34 10 -6.68 10 -6 10 C-6 9.01 -6 8.02 -6 7 C-5.34 6.67 -4.68 6.34 -4 6 C-4 5.01 -4 4.02 -4 3 C-1 3 -1 3 0.6875 4.5 C1.120625 4.995 1.55375 5.49 2 6 C2 5.34 2 4.68 2 4 C2.99 4 3.98 4 5 4 C5 3.34 5 2.68 5 2 C4.01 2.33 3.02 2.66 2 3 C1.34 2.67 0.68 2.34 0 2 C0 1.34 0 0.68 0 0 Z " fill="#3A3B40" transform="translate(158,114)"/>
<path d="M0 0 C26.99712209 -0.23949951 53.95464221 -0.01148748 80.9375 0.875 C82.22936218 0.91429626 83.52122437 0.95359253 84.85223389 0.99407959 C88.5152357 1.10764882 92.17747552 1.23490426 95.83984375 1.3671875 C96.94280289 1.40062256 98.04576202 1.43405762 99.18214417 1.46850586 C100.18672165 1.50838623 101.19129913 1.5482666 102.22631836 1.58935547 C103.10444687 1.62044403 103.98257538 1.65153259 104.88731384 1.68356323 C107 2 107 2 109 4 C110.25921294 13.15106529 108.35127906 23.18657665 107.40087891 32.32763672 C107.12284454 35.02087937 106.8598633 37.71533189 106.59765625 40.41015625 C106.42277863 42.12769641 106.2470293 43.84514809 106.0703125 45.5625 C105.95455368 46.76712891 105.95455368 46.76712891 105.8364563 47.99609375 C105.43923323 51.69877129 105.10105794 53.84841309 103 57 C101.19102596 55.19102596 101.82645276 52.49328189 101.8125 50.0546875 C101.87452426 41.32477337 102.90185644 32.77564431 104 24.125 C104.19347867 22.55087574 104.38619129 20.97665713 104.578125 19.40234375 C105.04329325 15.60042107 105.51869067 11.79991157 106 8 C105.27433838 8.01087646 104.54867676 8.02175293 103.80102539 8.03295898 C91.6651659 8.12821691 79.56024302 7.5667753 67.4375 7.0625 C62.87505131 6.87632992 58.31253062 6.69196245 53.75 6.5078125 C52.63954819 6.4627507 51.52909637 6.4176889 50.38499451 6.3712616 C44.11145962 6.11844519 37.83786909 5.88197404 31.5625 5.6796875 C30.54809593 5.64677864 30.54809593 5.64677864 29.51319885 5.61320496 C26.54269706 5.51785861 23.57213509 5.42704572 20.60131836 5.34204102 C17.73245052 5.2524957 14.86702135 5.13564069 12 5 C11.04883301 4.96406738 10.09766602 4.92813477 9.11767578 4.89111328 C8.21388184 4.83552246 7.31008789 4.77993164 6.37890625 4.72265625 C5.18309937 4.65896851 5.18309937 4.65896851 3.96313477 4.59399414 C2 4 2 4 0.72631836 1.95483398 C0.4866333 1.30973877 0.24694824 0.66464355 0 0 Z " fill="#0E0E0E" transform="translate(116,22)"/>
<path d="M0 0 C-0.66 1.32 -1.32 2.64 -2 4 C0.12780579 6.34058637 2.11562221 7.70700306 5 9 C4.34 9.66 3.68 10.32 3 11 C3 11.99 3 12.98 3 14 C3 14.99 3 15.98 3 17 C3.99 17 4.98 17 6 17 C6 17.66 6 18.32 6 19 C-1.79681718 20.64402584 -8.76571235 19.06769927 -16.5 17.5625 C-17.81229406 17.31595859 -19.12479329 17.0705066 -20.4375 16.82617188 C-23.62717765 16.22810732 -26.81435292 15.61911307 -30 15 C-30 14.34 -30 13.68 -30 13 C-26.30889881 10.32422952 -22.30520617 8.11758632 -18.375 5.8125 C-17.28058594 5.14541016 -16.18617187 4.47832031 -15.05859375 3.79101562 C-13.99511719 3.16517578 -12.93164062 2.53933594 -11.8359375 1.89453125 C-10.37486572 1.02598511 -10.37486572 1.02598511 -8.88427734 0.13989258 C-5.45804952 -1.21418375 -3.52013105 -0.90954655 0 0 Z " fill="#989FA7" transform="translate(110,108)"/>
<path d="M0 0 C5.06743471 -0.14097837 9.74634041 0.36624561 14.69921875 1.34375 C23.50655304 2.98686453 32.34169252 4.12963464 41.23522949 5.19198608 C45.63851637 5.71823028 50.0400414 6.25872597 54.44140625 6.80078125 C55.2900827 6.90518021 56.13875916 7.00957916 57.01315308 7.11714172 C63.85576638 7.96617372 70.6704522 8.94866897 77.47753906 10.046875 C81.48595523 10.67777904 85.47684915 11.16075453 89.51953125 11.51953125 C90.44540039 11.60178955 91.37126953 11.68404785 92.32519531 11.76879883 C94.09821848 11.91855382 95.87235021 12.0559124 97.64746094 12.1784668 C98.82937012 12.27575073 98.82937012 12.27575073 100.03515625 12.375 C100.7300415 12.42398438 101.42492676 12.47296875 102.14086914 12.5234375 C104.47725094 13.12233668 105.4523912 14.19440611 107 16 C105.625 18 105.625 18 104 20 C103.34 20 102.68 20 102 20 C102 20.66 102 21.32 102 22 C100.57421875 23.47265625 100.57421875 23.47265625 98.6875 25.0625 C98.07261719 25.58972656 97.45773438 26.11695313 96.82421875 26.66015625 C95 28 95 28 92 29 C92.3125 27.125 92.3125 27.125 93 25 C93.99 24.34 94.98 23.68 96 23 C95.01 22.01 94.02 21.02 93 20 C93.66 20 94.32 20 95 20 C95 19.34 95 18.68 95 18 C95.99 17.505 95.99 17.505 97 17 C95.02 17.33 93.04 17.66 91 18 C91 17.34 91 16.68 91 16 C90.42831589 15.9189653 89.85663177 15.8379306 89.2676239 15.75444031 C83.21437523 14.89610553 77.16143011 14.03565275 71.10864258 13.17407227 C68.86197203 12.85453938 66.6152294 12.53551284 64.3684082 12.21704102 C53.49390371 10.67533297 42.62439896 9.12528135 31.78125 7.375 C24.14554764 6.14523048 16.50191334 5.15159519 8.8125 4.3125 C7.65814453 4.18294922 6.50378906 4.05339844 5.31445312 3.91992188 C2.54336872 3.60946844 -0.22807077 3.30279944 -3 3 C-2.01 2.67 -1.02 2.34 0 2 C0 1.34 0 0.68 0 0 Z " fill="#C6C6CA" transform="translate(108,104)"/>
<path d="M0 0 C0.85658203 0.15033691 0.85658203 0.15033691 1.73046875 0.30371094 C13.10638087 2.29766056 24.48608419 4.26910358 35.875 6.1875 C36.85339844 6.35411133 37.83179688 6.52072266 38.83984375 6.69238281 C43.10421359 7.40653278 47.32473874 8.05015301 51.6328125 8.42578125 C54.69548454 8.73807094 57.31718164 9.36850596 60.2109375 10.4140625 C66.19279315 12.54951508 72.37130066 13.37972617 78.625 14.375 C91.51935219 16.5041689 104.26498989 19.07187036 117 22 C117 22.66 117 23.32 117 24 C109.74565955 23.62699313 103.08513521 22.62225449 96.07421875 20.74609375 C93.02462413 20.00597612 90.04823871 19.53074853 86.9375 19.125 C70.40518716 16.9170421 54.02016388 13.52756557 37.75146484 9.88452148 C28.74614046 7.89006951 19.68501098 6.23019961 10.60546875 4.61132812 C9.51234375 4.41474609 8.41921875 4.21816406 7.29296875 4.015625 C5.83153442 3.75700684 5.83153442 3.75700684 4.34057617 3.49316406 C2 3 2 3 0 2 C0 1.34 0 0.68 0 0 Z " fill="#8B8C8F" transform="translate(49,138)"/>
<path d="M0 0 C2 2 2 2 2.26123047 3.8984375 C2.19312156 12.75608895 1.31612577 21.52468507 0.40087891 30.32763672 C0.12284454 33.02087937 -0.1401367 35.71533189 -0.40234375 38.41015625 C-0.57722137 40.12769641 -0.7529707 41.84514809 -0.9296875 43.5625 C-1.00686005 44.36558594 -1.08403259 45.16867188 -1.1635437 45.99609375 C-1.56076677 49.69877129 -1.89894206 51.84841309 -4 55 C-5.80897404 53.19102596 -5.17354724 50.49328189 -5.1875 48.0546875 C-5.12547574 39.32477337 -4.09814356 30.77564431 -3 22.125 C-2.80652133 20.55087574 -2.61380871 18.97665713 -2.421875 17.40234375 C-1.95670675 13.60042107 -1.48130933 9.79991157 -1 6 C-1.97582031 6.01160156 -2.95164063 6.02320313 -3.95703125 6.03515625 C-5.22933594 6.04417969 -6.50164062 6.05320312 -7.8125 6.0625 C-9.70935547 6.07990234 -9.70935547 6.07990234 -11.64453125 6.09765625 C-15 6 -15 6 -18 5 C-17.67 3.68 -17.34 2.36 -17 1 C-11.40224495 0.02647738 -5.67437001 -0.61204357 0 0 Z " fill="#161616" transform="translate(223,24)"/>
<path d="M0 0 C0.66 0 1.32 0 2 0 C2.66 1.32 3.32 2.64 4 4 C3.34 4 2.68 4 2 4 C1.95512451 4.59087402 1.91024902 5.18174805 1.86401367 5.79052734 C0.87266997 18.66194638 -0.35222238 31.47790558 -1.88720703 44.29589844 C-3.17451874 55.1763951 -4.12579051 66.07944417 -5 77 C-4.1028125 77.185625 -4.1028125 77.185625 -3.1875 77.375 C-1 78 -1 78 2 80 C-1.42397723 82.10706291 -4.03942467 82.08680713 -8 82 C-8.21007521 71.97757828 -7.59954453 62.22040942 -6.50390625 52.265625 C-6.34882871 50.81074584 -6.19429333 49.3558088 -6.04026794 47.90081787 C-5.71948262 44.88518959 -5.39382582 41.87014424 -5.06420898 38.85546875 C-4.64168455 34.98942155 -4.22931395 31.12237255 -3.82019138 27.25488663 C-3.50330508 24.26579475 -3.18241104 21.27714455 -2.86015129 18.28862762 C-2.70649635 16.86134847 -2.55380657 15.43396508 -2.40210152 14.00647736 C-2.19067493 12.0250564 -1.9735325 10.04424784 -1.75610352 8.06347656 C-1.57290306 6.37475433 -1.57290306 6.37475433 -1.38600159 4.6519165 C-1 2 -1 2 0 0 Z " fill="#1E1E1E" transform="translate(114,22)"/>
<path d="M0 0 C2.46800047 1.15173355 4.04783565 2.04783565 6 4 C5.01 4.33 4.02 4.66 3 5 C1.82244087 7.94389782 1.96651304 8.89953913 3 12 C2.34 12.33 1.68 12.66 1 13 C3.31 13.66 5.62 14.32 8 15 C7.01 16.32 6.02 17.64 5 19 C-2.84133613 18.04004261 -10.66995796 16.98475433 -18.5 15.9375 C-19.90885008 15.74931835 -21.31770421 15.56116705 -22.7265625 15.37304688 C-26.15108851 14.91571475 -29.57555938 14.45797119 -33 14 C-33 13.67 -33 13.34 -33 13 C-32.113125 12.71125 -31.22625 12.4225 -30.3125 12.125 C-27.49617576 11.16851252 -24.74916844 10.13201054 -22 9 C-21.01 9.99 -20.02 10.98 -19 12 C-17.35 10.68 -15.7 9.36 -14 8 C-13.34 8.33 -12.68 8.66 -12 9 C-12.99 10.32 -13.98 11.64 -15 13 C-13.35 12.67 -11.7 12.34 -10 12 C-10.33 11.01 -10.66 10.02 -11 9 C-9.06745228 6.9754262 -7.36841312 5.57894208 -5 4 C-5 6.64054495 -5.35107784 8.48542662 -6 11 C-6 11.66 -6 12.32 -6 13 C-4.35 12.67 -2.7 12.34 -1 12 C-1.66 11.01 -2.32 10.02 -3 9 C-3 8.01 -3 7.02 -3 6 C-2.34 6 -1.68 6 -1 6 C-1 6.66 -1 7.32 -1 8 C-0.34 8 0.32 8 1 8 C0.649375 7.05125 0.29875 6.1025 -0.0625 5.125 C-1 2 -1 2 0 0 Z " fill="#404146" transform="translate(164,118)"/>
<path d="M0 0 C10.44867252 -0.43335508 21.05175581 0.6839186 31 4 C27.25 6 27.25 6 25 6 C24.34 7.98 23.68 9.96 23 12 C22.34 12 21.68 12 21 12 C20.67 12.99 20.34 13.98 20 15 C17.9375 15.6875 17.9375 15.6875 16 16 C17 14 18 12 19 10 C17.824375 10.5259375 17.824375 10.5259375 16.625 11.0625 C15.75875 11.371875 14.8925 11.68125 14 12 C13.34 11.67 12.68 11.34 12 11 C12 10.34 12 9.68 12 9 C11.34 9 10.68 9 10 9 C9.34 10.32 8.68 11.64 8 13 C6.35 12.67 4.7 12.34 3 12 C4.75 8.125 4.75 8.125 7 7 C8.13350534 4.98330173 8.13350534 4.98330173 9 3 C8.34 2.67 7.68 2.34 7 2 C7 2.66 7 3.32 7 4 C4.08482708 2.92598892 2.22189824 2.22189824 0 0 Z " fill="#3C3D42" transform="translate(126,110)"/>
<path d="M0 0 C0.99 0 1.98 0 3 0 C3 0.99 3 1.98 3 3 C4.65 3 6.3 3 8 3 C8 3.66 8 4.32 8 5 C7.01 5 6.02 5 5 5 C5 5.66 5 6.32 5 7 C4.01 6.67 3.02 6.34 2 6 C2 5.34 2 4.68 2 4 C1.34 4.33 0.68 4.66 0 5 C-0.33 5.99 -0.66 6.98 -1 8 C-1.66 8 -2.32 8 -3 8 C-3 8.99 -3 9.98 -3 11 C-5.0625 13.1875 -5.0625 13.1875 -8 15 C-10.33297433 15.04092937 -12.66705225 15.04241723 -15 15 C-15.9590625 15.7425 -15.9590625 15.7425 -16.9375 16.5 C-20.09084618 18.79334268 -23.22241247 18.47219844 -27 18 C-29.5 17 -29.5 17 -31 16 C-30.01 16 -29.02 16 -28 16 C-27.67 14.68 -27.34 13.36 -27 12 C-25.2984375 11.7834375 -25.2984375 11.7834375 -23.5625 11.5625 C-20.19222799 11.38828522 -20.19222799 11.38828522 -19 10 C-19 9.67 -19 9.34 -19 9 C-16.03 8.34 -13.06 7.68 -10 7 C-10.66 8.65 -11.32 10.3 -12 12 C-11.01 11.67 -10.02 11.34 -9 11 C-8.67 10.34 -8.34 9.68 -8 9 C-7.34 9 -6.68 9 -6 9 C-5.938125 8.05125 -5.87625 7.1025 -5.8125 6.125 C-5.544375 5.09375 -5.27625 4.0625 -5 3 C-2.4375 1.625 -2.4375 1.625 0 1 C0 0.67 0 0.34 0 0 Z " fill="#404147" transform="translate(155,113)"/>
<path d="M0 0 C3.96 0.33 7.92 0.66 12 1 C12 1.66 12 2.32 12 3 C11.34 3 10.68 3 10 3 C10 3.66 10 4.32 10 5 C8.68 4.67 7.36 4.34 6 4 C6.33 6.64 6.66 9.28 7 12 C6.34 12 5.68 12 5 12 C5 11.34 5 10.68 5 10 C4.34 10 3.68 10 3 10 C3.34444881 12.47266765 3.34444881 12.47266765 4 15 C4.66 15.33 5.32 15.66 6 16 C4 18 4 18 1.375 18.125 C0.59125 18.08375 -0.1925 18.0425 -1 18 C-1 15.35945505 -0.64892216 13.51457338 0 11 C0 10.34 0 9.68 0 9 C-0.45375 9.66 -0.9075 10.32 -1.375 11 C-1.91125 11.66 -2.4475 12.32 -3 13 C-3.66 13 -4.32 13 -5 13 C-5 13.66 -5 14.32 -5 15 C-4.34 15.33 -3.68 15.66 -3 16 C-5.07553648 16.5534764 -6.84365964 17 -9 17 C-8.67 15.68 -8.34 14.36 -8 13 C-9.98 14.32 -11.96 15.64 -14 17 C-14 16.34 -14 15.68 -14 15 C-14.99 14.67 -15.98 14.34 -17 14 C-16.2575 13.896875 -15.515 13.79375 -14.75 13.6875 C-11.8136843 12.95342107 -10.33891712 11.85500323 -8 10 C-7.34 10 -6.68 10 -6 10 C-6 9.01 -6 8.02 -6 7 C-5.34 6.67 -4.68 6.34 -4 6 C-4 5.01 -4 4.02 -4 3 C-1 3 -1 3 0.6875 4.5 C1.120625 4.995 1.55375 5.49 2 6 C2 5.34 2 4.68 2 4 C2.99 4 3.98 4 5 4 C5 3.34 5 2.68 5 2 C4.01 2.33 3.02 2.66 2 3 C1.34 2.67 0.68 2.34 0 2 C0 1.34 0 0.68 0 0 Z " fill="#2F3035" transform="translate(158,114)"/>
<path d="M0 0 C0.33 0.66 0.66 1.32 1 2 C2.0828125 1.6596875 2.0828125 1.6596875 3.1875 1.3125 C6.75584692 0.91601701 8.13871099 1.95622213 11 4 C10.34 4.66 9.68 5.32 9 6 C9 6.99 9 7.98 9 9 C9 9.99 9 10.98 9 12 C9.99 12 10.98 12 12 12 C12 12.66 12 13.32 12 14 C3.42857143 15.42857143 3.42857143 15.42857143 0 13 C0.99 12.34 1.98 11.68 3 11 C2.34 9.68 1.68 8.36 1 7 C-0.65 7 -2.3 7 -4 7 C-4 6.67 -4 6.34 -4 6 C-6.97 5.505 -6.97 5.505 -10 5 C-10 4.67 -10 4.34 -10 4 C-8.02 3.67 -6.04 3.34 -4 3 C-4.66 2.34 -5.32 1.68 -6 1 C-4.02 0.67 -2.04 0.34 0 0 Z " fill="#6B727A" transform="translate(104,113)"/>
<path d="M0 0 C-1.32 0.33 -2.64 0.66 -4 1 C-3.67 2.32 -3.34 3.64 -3 5 C-0.03 5.495 -0.03 5.495 3 6 C2.01 6.495 2.01 6.495 1 7 C1.45375 7.45375 1.9075 7.9075 2.375 8.375 C6 12 6 12 6.125 14.4375 C6.08375 15.283125 6.0425 16.12875 6 17 C6 17.99 6 18.98 6 20 C3.24075815 21.80411967 2.11027897 22.0127245 -1.25 21.625 C-2.1575 21.41875 -3.065 21.2125 -4 21 C-4 20.67 -4 20.34 -4 20 C-2.35 20 -0.7 20 1 20 C1 19.34 1 18.68 1 18 C0.01 18 -0.98 18 -2 18 C-2.33 17.01 -2.66 16.02 -3 15 C-2.67 14.67 -2.34 14.34 -2 14 C-3.65 13.67 -5.3 13.34 -7 13 C-7 12.67 -7 12.34 -7 12 C-5.02 11.34 -3.04 10.68 -1 10 C-2.32 9.34 -3.64 8.68 -5 8 C-5 7.34 -5 6.68 -5 6 C-5.99 5.67 -6.98 5.34 -8 5 C-7.34 4.01 -6.68 3.02 -6 2 C-6.99 1.67 -7.98 1.34 -9 1 C-6.04335481 -0.4783226 -3.25770263 -0.06032783 0 0 Z " fill="#4F535B" transform="translate(115,107)"/>
<path d="M0 0 C1.77049689 -0.05410687 3.54146849 -0.09284119 5.3125 -0.125 C6.29863281 -0.14820312 7.28476563 -0.17140625 8.30078125 -0.1953125 C11 0 11 0 14 2 C14.33 2.66 14.66 3.32 15 4 C17.01669827 5.13350534 17.01669827 5.13350534 19 6 C18.67 7.65 18.34 9.3 18 11 C17.21625 10.835 16.4325 10.67 15.625 10.5 C13.11791961 9.9376293 13.11791961 9.9376293 11 10 C9.33034549 9.68197057 7.66321482 9.35015049 6 9 C5.67 8.01 5.34 7.02 5 6 C2.49552484 4.78130071 2.49552484 4.78130071 0 4 C0 2.68 0 1.36 0 0 Z " fill="#46474C" transform="translate(111,108)"/>
<path d="M0 0 C0.33 0 0.66 0 1 0 C3.55130995 6.30323635 2.86960125 11.94073409 2.22070312 18.61083984 C1.95714759 21.46388687 1.73567325 24.31905246 1.515625 27.17578125 C1.34400434 29.36720743 1.17212816 31.55861362 1 33.75 C0.91717773 34.82241943 0.83435547 35.89483887 0.74902344 36.99975586 C0.6668457 38.00530518 0.58466797 39.01085449 0.5 40.046875 C0.39171875 41.40570801 0.39171875 41.40570801 0.28125 42.79199219 C0 45 0 45 -1 47 C-2.32 46.34 -3.64 45.68 -5 45 C-3.02 44.505 -3.02 44.505 -1 44 C-1.350625 42.80375 -1.70125 41.6075 -2.0625 40.375 C-3.3336102 34.551332 -2.82467735 29.11439394 -2.22509766 23.22363281 C-1.96223372 20.6269249 -1.72100709 18.02855693 -1.48046875 15.4296875 C-1.00145188 10.28501169 -0.50567359 5.14211893 0 0 Z " fill="#212121" transform="translate(217,72)"/>
<path d="M0 0 C2.10494301 0.08708038 4.20902142 0.19525693 6.3125 0.3125 C8.07013672 0.39951172 8.07013672 0.39951172 9.86328125 0.48828125 C13.0983686 1.01604768 14.08684881 1.42380724 16 4 C14.625 6 14.625 6 13 8 C12.34 8 11.68 8 11 8 C11 8.66 11 9.32 11 10 C9.57421875 11.47265625 9.57421875 11.47265625 7.6875 13.0625 C7.07261719 13.58972656 6.45773438 14.11695313 5.82421875 14.66015625 C4 16 4 16 1 17 C1.3125 15.125 1.3125 15.125 2 13 C2.99 12.34 3.98 11.68 5 11 C4.01 10.01 3.02 9.02 2 8 C2.66 8 3.32 8 4 8 C4 7.34 4 6.68 4 6 C4.66 5.67 5.32 5.34 6 5 C4.02 5.33 2.04 5.66 0 6 C0 4.02 0 2.04 0 0 Z " fill="#C2C2C7" transform="translate(199,116)"/>
<path d="M0 0 C6.18505263 0.74422946 12.34118753 1.62704084 18.5 2.5625 C19.4178125 2.70107422 20.335625 2.83964844 21.28125 2.98242188 C23.52097131 3.32071312 25.7605492 3.6599234 28 4 C26.73046875 5.48828125 26.73046875 5.48828125 25 7 C21.3125 7.1875 21.3125 7.1875 18 7 C17.67 7.66 17.34 8.32 17 9 C15.906875 8.835 14.81375 8.67 13.6875 8.5 C10.12474127 7.93281816 10.12474127 7.93281816 7 8 C6.01 7.67 5.02 7.34 4 7 C4 5.35 4 3.7 4 2 C2.68 1.34 1.36 0.68 0 0 Z " fill="#E2E3E8" transform="translate(156,135)"/>
<path d="M0 0 C6.74233419 -0.12910853 13.30386804 0.202163 20 1 C19.175 1.763125 18.35 2.52625 17.5 3.3125 C14.65944803 5.75434142 14.65944803 5.75434142 15 9 C13.35 9 11.7 9 10 9 C9.34 10.32 8.68 11.64 8 13 C6.35 12.67 4.7 12.34 3 12 C4.75 8.125 4.75 8.125 7 7 C8.13350534 4.98330173 8.13350534 4.98330173 9 3 C8.34 2.67 7.68 2.34 7 2 C7 2.66 7 3.32 7 4 C4.08482708 2.92598892 2.22189824 2.22189824 0 0 Z " fill="#2F2F34" transform="translate(126,110)"/>
<path d="M0 0 C1.11084961 0.15662109 1.11084961 0.15662109 2.24414062 0.31640625 C4.06030085 0.57418383 5.87417304 0.84799353 7.6875 1.125 C8.0175 2.775 8.3475 4.425 8.6875 6.125 C5.91632696 5.98419445 3.14567359 5.83756882 0.375 5.6875 C-0.80352539 5.62852539 -0.80352539 5.62852539 -2.00585938 5.56835938 C-2.76318359 5.52646484 -3.52050781 5.48457031 -4.30078125 5.44140625 C-4.99727783 5.40474854 -5.69377441 5.36809082 -6.41137695 5.33032227 C-8.3125 5.125 -8.3125 5.125 -11.3125 4.125 C-11.3125 3.465 -11.3125 2.805 -11.3125 2.125 C-11.9725 1.795 -12.6325 1.465 -13.3125 1.125 C-8.76170706 -1.2984992 -4.90970441 -0.76343929 0 0 Z " fill="#131313" transform="translate(149.3125,103.875)"/>
<path d="M0 0 C2.33294775 -0.04241723 4.66702567 -0.04092937 7 0 C7.33 0.33 7.66 0.66 8 1 C9.66617115 1.04063832 11.33388095 1.042721 13 1 C12.67 1.66 12.34 2.32 12 3 C11.34 3 10.68 3 10 3 C10 3.66 10 4.32 10 5 C9.360625 5.103125 8.72125 5.20625 8.0625 5.3125 C7.381875 5.539375 6.70125 5.76625 6 6 C5.67 6.99 5.34 7.98 5 9 C2.10441559 10.4477922 0.25811062 11 -3 11 C-3 6.97353778 -1.79493901 3.58987802 0 0 Z " fill="#2D2D34" transform="translate(193,119)"/>
<path d="M0 0 C0.66 0.33 1.32 0.66 2 1 C-6.10726794 8.65752169 -14.28905421 16.03124337 -23 23 C-24.16936874 23.99683893 -25.33655998 24.99624783 -26.5 26 C-29 28 -29 28 -32 29 C-32 28.34 -32 27.68 -32 27 C-33.98 27 -35.96 27 -38 27 C-38 26.67 -38 26.34 -38 26 C-36.98679688 25.85304687 -36.98679688 25.85304687 -35.953125 25.703125 C-29.08880853 24.56991301 -29.08880853 24.56991301 -24 20 C-23.34 20 -22.68 20 -22 20 C-21.67 19.01 -21.34 18.02 -21 17 C-19.22265625 15.39453125 -19.22265625 15.39453125 -17.0625 13.8125 C-16.35222656 13.28269531 -15.64195312 12.75289062 -14.91015625 12.20703125 C-13 11 -13 11 -11 11 C-10.67 10.01 -10.34 9.02 -10 8 C-8.36735356 6.54038617 -6.67087977 5.15093248 -4.9375 3.8125 C-4.01839844 3.09707031 -3.09929687 2.38164062 -2.15234375 1.64453125 C-1.44207031 1.10183594 -0.73179687 0.55914062 0 0 Z " fill="#C4C4C6" transform="translate(198,133)"/>
<path d="M0 0 C3.3 0.33 6.6 0.66 10 1 C9.67 1.99 9.34 2.98 9 4 C9.99 3.67 10.98 3.34 12 3 C14.6875 3.9375 14.6875 3.9375 17 5 C16.401875 5.268125 15.80375 5.53625 15.1875 5.8125 C13.02775192 6.98493467 11.64209744 8.19369282 10 10 C9.34 9.67 8.68 9.34 8 9 C9 7 9 7 11 5 C9.02 5 7.04 5 5 5 C5 5.66 5 6.32 5 7 C5.66 7.33 6.32 7.66 7 8 C5.515 10.475 5.515 10.475 4 13 C3.01 12.67 2.02 12.34 1 12 C1 11 1 10 1 9 C0.67449498 7.33178677 0.34153937 5.66500443 0 4 C-0.66 4 -1.32 4 -2 4 C-2 3.34 -2 2.68 -2 2 C-1.34 2 -0.68 2 0 2 C0 1.34 0 0.68 0 0 Z " fill="#36373C" transform="translate(170,115)"/>
<path d="M0 0 C7.6691003 1.31951266 15.33560647 2.65341732 23 4 C24.27665527 4.22357178 24.27665527 4.22357178 25.57910156 4.45166016 C27.76225067 4.83651894 29.94384407 5.22902258 32.125 5.625 C33.95417969 5.95371094 33.95417969 5.95371094 35.8203125 6.2890625 C38.72704629 6.93897104 41.28098458 7.79952904 44 9 C44 9.33 44 9.66 44 10 C35.5433251 9.47979621 27.32962323 8.06256956 19.03540039 6.41601562 C16.91090076 5.99472534 14.78474392 5.58272551 12.65820312 5.171875 C2.29091348 3.14545674 2.29091348 3.14545674 0 2 C0 1.34 0 0.68 0 0 Z " fill="#8B8C8D" transform="translate(49,138)"/>
<path d="M0 0 C5.32710982 -0.16079203 10.1531175 0.42391304 15.375 1.4375 C21.2431311 2.528994 27.05059598 3.45914509 33 4 C33 4.66 33 5.32 33 6 C25.01896637 6.24634228 17.28921607 5.47935115 9.375 4.5 C8.18003906 4.35691406 6.98507813 4.21382813 5.75390625 4.06640625 C2.83526309 3.71616907 -0.08262178 3.36059639 -3 3 C-2.01 2.67 -1.02 2.34 0 2 C0 1.34 0 0.68 0 0 Z " fill="#DBDBDE" transform="translate(108,104)"/>
<path d="M0 0 C0.99 0 1.98 0 3 0 C3 0.99 3 1.98 3 3 C4.65 3 6.3 3 8 3 C8 3.66 8 4.32 8 5 C7.01 5 6.02 5 5 5 C5 5.66 5 6.32 5 7 C4.01 6.67 3.02 6.34 2 6 C2 5.34 2 4.68 2 4 C1.01 4.495 1.01 4.495 0 5 C-0.33 5.99 -0.66 6.98 -1 8 C-1.66 8 -2.32 8 -3 8 C-3 8.99 -3 9.98 -3 11 C-5.1875 13.25 -5.1875 13.25 -8 15 C-10.8125 14.75 -10.8125 14.75 -13 14 C-12 12 -12 12 -9 11 C-8.67 10.34 -8.34 9.68 -8 9 C-7.34 9 -6.68 9 -6 9 C-5.938125 8.05125 -5.87625 7.1025 -5.8125 6.125 C-5.4103125 4.578125 -5.4103125 4.578125 -5 3 C-2.4375 1.625 -2.4375 1.625 0 1 C0 0.67 0 0.34 0 0 Z " fill="#47484D" transform="translate(155,113)"/>
<path d="M0 0 C0.99 0.33 1.98 0.66 3 1 C2.72244276 4.77201179 2.42554298 8.54225555 2.125 12.3125 C2.00705078 13.9202832 2.00705078 13.9202832 1.88671875 15.56054688 C1.80292969 16.58857422 1.71914062 17.61660156 1.6328125 18.67578125 C1.55949707 19.62364502 1.48618164 20.57150879 1.41064453 21.5480957 C1 24 1 24 -1 27 C-2 26 -2 26 -2.1328125 23.2265625 C-2.08695652 2.08695652 -2.08695652 2.08695652 0 0 Z " fill="#121212" transform="translate(220,52)"/>
<path d="M0 0 C1.65 0.33 3.3 0.66 5 1 C4.01 2.485 4.01 2.485 3 4 C5.64 3.67 8.28 3.34 11 3 C11 4.65 11 6.3 11 8 C5.44686304 7.35588614 -0.01255636 6.49942196 -5.5 5.4375 C-6.22703125 5.29892578 -6.9540625 5.16035156 -7.703125 5.01757812 C-9.46918037 4.68063335 -11.23465426 4.34064317 -13 4 C-13 3.67 -13 3.34 -13 3 C-10.36 3 -7.72 3 -5 3 C-5 2.34 -5 1.68 -5 1 C-2.525 1.99 -2.525 1.99 0 3 C0 2.01 0 1.02 0 0 Z " fill="#ECEDEF" transform="translate(69,136)"/>
<path d="M0 0 C2.46800047 1.15173355 4.04783565 2.04783565 6 4 C5.01 4.33 4.02 4.66 3 5 C1.82244087 7.94389782 1.96651304 8.89953913 3 12 C2.01 12.495 2.01 12.495 1 13 C3.31 13.66 5.62 14.32 8 15 C7.67 15.66 7.34 16.32 7 17 C4.03 16.67 1.06 16.34 -2 16 C-1.67 14.68 -1.34 13.36 -1 12 C-1.66 11.01 -2.32 10.02 -3 9 C-3 8.01 -3 7.02 -3 6 C-2.34 6 -1.68 6 -1 6 C-1 6.66 -1 7.32 -1 8 C-0.34 8 0.32 8 1 8 C0.649375 7.05125 0.29875 6.1025 -0.0625 5.125 C-1 2 -1 2 0 0 Z " fill="#505156" transform="translate(164,118)"/>
<path d="M0 0 C0.33 0 0.66 0 1 0 C1.34915606 9.15564771 0.27041977 17.95960217 -1 27 C-1.99 26.67 -2.98 26.34 -4 26 C-3.64390639 16.9011942 -2.87704025 8.70349911 0 0 Z " fill="#090909" transform="translate(224,26)"/>
<path d="M0 0 C1.98 0 3.96 0 6 0 C5.67 1.32 5.34 2.64 5 4 C4.01 4 3.02 4 2 4 C1.8453125 4.928125 1.8453125 4.928125 1.6875 5.875 C1 8 1 8 -2 10 C-4.625 9.75 -4.625 9.75 -7 9 C-7.33 8.34 -7.66 7.68 -8 7 C-7.50628906 6.66226563 -7.01257813 6.32453125 -6.50390625 5.9765625 C-5.86324219 5.53054687 -5.22257813 5.08453125 -4.5625 4.625 C-3.92441406 4.18414062 -3.28632813 3.74328125 -2.62890625 3.2890625 C-0.86259072 2.07839147 -0.86259072 2.07839147 0 0 Z " fill="#DCDCE3" transform="translate(199,125)"/>
<path d="M0 0 C4.95 0.33 9.9 0.66 15 1 C13.68 2.32 12.36 3.64 11 5 C10.67 5.66 10.34 6.32 10 7 C6.37 6.67 2.74 6.34 -1 6 C-0.34 5.67 0.32 5.34 1 5 C0.67 3.35 0.34 1.7 0 0 Z " fill="#202020" transform="translate(157,105)"/>
<path d="M0 0 C0.66 0.33 1.32 0.66 2 1 C1.525625 1.78375 1.05125 2.5675 0.5625 3.375 C-0.33898023 4.88948678 -1.21179485 6.4235897 -2 8 C-7.61 7.34 -13.22 6.68 -19 6 C-19 5.67 -19 5.34 -19 5 C-18.113125 4.71125 -17.22625 4.4225 -16.3125 4.125 C-13.49617576 3.16851252 -10.74916844 2.13201054 -8 1 C-7.01 1.99 -6.02 2.98 -5 4 C-3.35 2.68 -1.7 1.36 0 0 Z " fill="#51545A" transform="translate(150,126)"/>
<path d="M0 0 C1.65 0 3.3 0 5 0 C5.33 0.99 5.66 1.98 6 3 C8.00016466 4.20882096 8.00016466 4.20882096 10 5 C9.67 6.65 9.34 8.3 9 10 C8.21625 9.835 7.4325 9.67 6.625 9.5 C4.11791961 8.9376293 4.11791961 8.9376293 2 9 C0.66216607 8.68521554 -0.67203709 8.35412344 -2 8 C-0.25 3.125 -0.25 3.125 2 2 C1.34 1.34 0.68 0.68 0 0 Z " fill="#3C3E41" transform="translate(120,109)"/>
<path d="M0 0 C14.78132118 0.77904328 14.78132118 0.77904328 21 3 C21 3.66 21 4.32 21 5 C16.47497068 6.32675617 12.67874099 5.57249199 8.1875 4.5625 C7.14819336 4.34110352 7.14819336 4.34110352 6.08789062 4.11523438 C4.39003185 3.75224388 2.69473237 3.37731777 1 3 C0.67 2.01 0.34 1.02 0 0 Z " fill="#B6BBBE" transform="translate(91,146)"/>
<path d="M0 0 C2.97 0.33 5.94 0.66 9 1 C8.67 2.65 8.34 4.3 8 6 C8.99 6 9.98 6 11 6 C11 6.66 11 7.32 11 8 C2.42857143 9.42857143 2.42857143 9.42857143 -1 7 C-0.01 6.34 0.98 5.68 2 5 C1.67 4.360625 1.34 3.72125 1 3.0625 C0 1 0 1 0 0 Z " fill="#898E98" transform="translate(105,119)"/>
<path d="M0 0 C3.96 0.33 7.92 0.66 12 1 C12 1.66 12 2.32 12 3 C11.34 3 10.68 3 10 3 C10 3.66 10 4.32 10 5 C8.68 4.67 7.36 4.34 6 4 C6.33 6.64 6.66 9.28 7 12 C6.34 12 5.68 12 5 12 C5 11.34 5 10.68 5 10 C4.34 10 3.68 10 3 10 C2.67 8.02 2.34 6.04 2 4 C2.99 4 3.98 4 5 4 C5 3.34 5 2.68 5 2 C4.01 2.33 3.02 2.66 2 3 C1.34 2.67 0.68 2.34 0 2 C0 1.34 0 0.68 0 0 Z " fill="#2B2C31" transform="translate(158,114)"/>
<path d="M0 0 C1.62418745 -0.08090971 3.24951745 -0.13914995 4.875 -0.1875 C5.77992188 -0.22230469 6.68484375 -0.25710937 7.6171875 -0.29296875 C8.79667969 -0.14794922 8.79667969 -0.14794922 10 0 C10.66 0.99 11.32 1.98 12 3 C11.67 3.33 11.34 3.66 11 4 C12.32 4.66 13.64 5.32 15 6 C5.58997722 6.18451025 5.58997722 6.18451025 1 5 C0.67 3.35 0.34 1.7 0 0 Z " fill="#0A0A0B" transform="translate(166,107)"/>
<path d="M0 0 C6.44362304 -0.2408831 12.2103966 0.64700392 18.5 2 C19.4178125 2.19078125 20.335625 2.3815625 21.28125 2.578125 C23.52241577 3.04503453 25.76180083 3.51910692 28 4 C28 4.66 28 5.32 28 6 C18.26668991 5.63131401 9.34195486 3.54888362 0 1 C0 0.67 0 0.34 0 0 Z " fill="#86868A" transform="translate(138,156)"/>
<path d="M0 0 C0.66 1.32 1.32 2.64 2 4 C-2.455 6.97 -2.455 6.97 -7 10 C-7.66 8.35 -8.32 6.7 -9 5 C-9.66 4.67 -10.32 4.34 -11 4 C-11 3.34 -11 2.68 -11 2 C-9.741875 2.226875 -8.48375 2.45375 -7.1875 2.6875 C-3.85861291 3.20193197 -3.85861291 3.20193197 -1 1.5625 C-0.67 1.046875 -0.34 0.53125 0 0 Z " fill="#E9EAEC" transform="translate(185,140)"/>
<path d="M0 0 C2 1 4 2 6 3 C6.625 5.5625 6.625 5.5625 7 8 C3.5647952 10.29013653 2.014669 10.17842973 -2 10 C-1.54177532 6.53058454 -1.10868317 3.32604951 0 0 Z " fill="#3F4348" transform="translate(121,116)"/>
<path d="M0 0 C-0.66 1.32 -1.32 2.64 -2 4 C-1.34 4.66 -0.68 5.32 0 6 C-1.65 6.33 -3.3 6.66 -5 7 C-5 6.01 -5 5.02 -5 4 C-6.98 4 -8.96 4 -11 4 C-10 1 -10 1 -8.3125 -0.25 C-5.26772958 -1.23749311 -3.08088616 -0.7002014 0 0 Z " fill="#8D9297" transform="translate(110,108)"/>
<path d="M0 0 C4.29 0.33 8.58 0.66 13 1 C11 5 11 5 9 7 C5.875 7.125 5.875 7.125 3 7 C3.33 6.01 3.66 5.02 4 4 C4.66 3.67 5.32 3.34 6 3 C3.03 2.505 3.03 2.505 0 2 C0 1.34 0 0.68 0 0 Z " fill="#25262B" transform="translate(179,117)"/>
<path d="M0 0 C3.375 4.5 3.375 4.5 3 9 C3.598125 9.12375 4.19625 9.2475 4.8125 9.375 C7 10 7 10 10 12 C6.22639456 14.32221873 4.98800589 14 0 14 C0 9.38 0 4.76 0 0 Z " fill="#414141" transform="translate(106,90)"/>
<path d="M0 0 C0.99 0.66 1.98 1.32 3 2 C3 2.99 3 3.98 3 5 C3.66 5.33 4.32 5.66 5 6 C4.01 6.33 3.02 6.66 2 7 C2.33 7.99 2.66 8.98 3 10 C0.6875 10.625 0.6875 10.625 -2 11 C-2.99 10.34 -3.98 9.68 -5 9 C-4.34 8.67 -3.68 8.34 -3 8 C-1.94729537 5.36893239 -1.94729537 5.36893239 -2 4 C-1.34964186 2.65863633 -0.6837045 1.32467746 0 0 Z " fill="#292A2F" transform="translate(169,118)"/>
<path d="M0 0 C0.33 0 0.66 0 1 0 C1 1.98 1 3.96 1 6 C1.66 6 2.32 6 3 6 C3 6.66 3 7.32 3 8 C-0.96 9.98 -4.92 11.96 -9 14 C-9 12.68 -9 11.36 -9 10 C-7.68 9.67 -6.36 9.34 -5 9 C-5 8.34 -5 7.68 -5 7 C-3.35 6.67 -1.7 6.34 0 6 C-0.2784375 4.7934375 -0.2784375 4.7934375 -0.5625 3.5625 C-0.706875 2.716875 -0.85125 1.87125 -1 1 C-0.67 0.67 -0.34 0.34 0 0 Z " fill="#E7EBEE" transform="translate(105,98)"/>
<path d="M0 0 C1.98 0 3.96 0 6 0 C5.01 0.66 4.02 1.32 3 2 C4.32 2.66 5.64 3.32 7 4 C7.33 3.67 7.66 3.34 8 3 C8.99 3.33 9.98 3.66 11 4 C10.01 4.495 10.01 4.495 9 5 C8.34786708 7.02463255 8.34786708 7.02463255 8 9 C6.35 9 4.7 9 3 9 C3.33 7.68 3.66 6.36 4 5 C2.35 4.01 0.7 3.02 -1 2 C-0.67 1.34 -0.34 0.68 0 0 Z " fill="#4C4D51" transform="translate(125,109)"/>
<path d="M0 0 C0.66 1.98 1.32 3.96 2 6 C1.67 6.33 1.34 6.66 1 7 C1.99 7.99 2.98 8.98 4 10 C1.36 10 -1.28 10 -4 10 C-4 9.01 -4 8.02 -4 7 C-4.66 7 -5.32 7 -6 7 C-5.67 6.34 -5.34 5.68 -5 5 C-4.01 5 -3.02 5 -2 5 C-1.67 4.67 -1.34 4.34 -1 4 C-1.99 3.01 -2.98 2.02 -4 1 C-2 0 -2 0 0 0 Z " fill="#5C5D62" transform="translate(180,129)"/>
<path d="M0 0 C0 0.99 0 1.98 0 3 C0.66 3 1.32 3 2 3 C2 3.66 2 4.32 2 5 C-1.3 4.34 -4.6 3.68 -8 3 C-8 1.68 -8 0.36 -8 -1 C-4.59745511 -2.2151946 -3.06748874 -1.86240388 0 0 Z " fill="#E5E9ED" transform="translate(120,147)"/>
<path d="M0 0 C4.29 0.33 8.58 0.66 13 1 C10 5 10 5 8.02734375 5.35546875 C7.33769531 5.30003906 6.64804688 5.24460937 5.9375 5.1875 C2.21537679 4.68845703 2.21537679 4.68845703 0 6 C0 4.02 0 2.04 0 0 Z " fill="#C0C1C4" transform="translate(199,116)"/>
<path d="M0 0 C5.91260345 -0.25706972 11.23918159 0.7017874 17 2 C17 2.33 17 2.66 17 3 C10.14011227 3.94870788 3.85988773 3.94870788 -3 3 C-2.01 2.67 -1.02 2.34 0 2 C0 1.34 0 0.68 0 0 Z " fill="#CACBCF" transform="translate(108,104)"/>
<path d="M0 0 C0.78375 0.04125 1.5675 0.0825 2.375 0.125 C2.705 0.785 3.035 1.445 3.375 2.125 C1.395 2.785 -0.585 3.445 -2.625 4.125 C-1.635 5.115 -0.645 6.105 0.375 7.125 C-1.58966413 8.19275224 -3.59355359 9.19053465 -5.625 10.125 C-6.285 9.795 -6.945 9.465 -7.625 9.125 C-7.625 8.465 -7.625 7.805 -7.625 7.125 C-6.635 6.465 -5.645 5.805 -4.625 5.125 C-4.625 4.135 -4.625 3.145 -4.625 2.125 C-2.625 0.125 -2.625 0.125 0 0 Z " fill="#27282D" transform="translate(145.625,111.875)"/>
<path d="M0 0 C1.98 0 3.96 0 6 0 C5.814375 0.94875 5.62875 1.8975 5.4375 2.875 C4.71313368 5.89868793 4.71313368 5.89868793 6 8 C0.58461538 9.23076923 0.58461538 9.23076923 -2.375 8.0625 C-2.91125 7.711875 -3.4475 7.36125 -4 7 C-2.35 7 -0.7 7 1 7 C1 5.68 1 4.36 1 3 C0.34 2.67 -0.32 2.34 -1 2 C-0.67 1.34 -0.34 0.68 0 0 Z " fill="#666973" transform="translate(115,120)"/>
<path d="M0 0 C1.670625 0.061875 1.670625 0.061875 3.375 0.125 C3.375 1.115 3.375 2.105 3.375 3.125 C2.715 3.125 2.055 3.125 1.375 3.125 C1.375 3.785 1.375 4.445 1.375 5.125 C-2.09825181 6.2827506 -4.98567448 6.19366652 -8.625 6.125 C-7.305 5.795 -5.985 5.465 -4.625 5.125 C-4.955 4.135 -5.285 3.145 -5.625 2.125 C-3.625 0.125 -3.625 0.125 0 0 Z " fill="#252628" transform="translate(200.625,109.875)"/>
<path d="M0 0 C3.3 0.33 6.6 0.66 10 1 C9.01 2.32 8.02 3.64 7 5 C6.67 5.66 6.34 6.32 6 7 C3.13275314 6.42655063 2.1385485 6.1385485 0 4 C0 2.66666667 0 1.33333333 0 0 Z " fill="#202021" transform="translate(176,107)"/>
<path d="M0 0 C0.66 0.33 1.32 0.66 2 1 C-5.11389522 8.66742597 -5.11389522 8.66742597 -10 10 C-10 9.34 -10 8.68 -10 8 C-11.98 8 -13.96 8 -16 8 C-16 7.67 -16 7.34 -16 7 C-15.02160156 6.87044922 -15.02160156 6.87044922 -14.0234375 6.73828125 C-7.85382562 5.74641149 -4.42933725 4.42933725 0 0 Z " fill="#BBBCC0" transform="translate(176,152)"/>
<path d="M0 0 C0.99 0.33 1.98 0.66 3 1 C2.67 1.66 2.34 2.32 2 3 C2.99 2.67 3.98 2.34 5 2 C7.6875 2.9375 7.6875 2.9375 10 4 C9.401875 4.268125 8.80375 4.53625 8.1875 4.8125 C6.02775192 5.98493467 4.64209744 7.19369282 3 9 C2.34 8.67 1.68 8.34 1 8 C2 6 2 6 4 4 C2.02 4 0.04 4 -2 4 C-1.34 2.68 -0.68 1.36 0 0 Z " fill="#494A4F" transform="translate(177,116)"/>
<path d="M0 0 C-1.32 0.33 -2.64 0.66 -4 1 C-3.67 2.32 -3.34 3.64 -3 5 C-0.03 5.495 -0.03 5.495 3 6 C2.01 6.495 2.01 6.495 1 7 C0.67 7.66 0.34 8.32 0 9 C-2.64 7.68 -5.28 6.36 -8 5 C-7.34 4.01 -6.68 3.02 -6 2 C-6.99 1.67 -7.98 1.34 -9 1 C-6.04335481 -0.4783226 -3.25770263 -0.06032783 0 0 Z " fill="#61656B" transform="translate(115,107)"/>
<path d="M0 0 C0.33 0 0.66 0 1 0 C1 1.65 1 3.3 1 5 C1.66 5 2.32 5 3 5 C3 3.35 3 1.7 3 0 C3.33 0 3.66 0 4 0 C3.85946128 2.62538284 3.71281053 5.25017427 3.5625 7.875 C3.52318359 8.62136719 3.48386719 9.36773437 3.44335938 10.13671875 C3.11328125 15.7734375 3.11328125 15.7734375 2 18 C0.68 17.34 -0.64 16.68 -2 16 C-0.68 15.67 0.64 15.34 2 15 C1.855625 14.41992188 1.71125 13.83984375 1.5625 13.2421875 C0.49110572 8.73340325 -0.23945936 4.66945753 0 0 Z " fill="#5B5B5B" transform="translate(214,101)"/>
<path d="M0 0 C0.20674944 5.78898419 -0.40837921 10.42932723 -2 16 C-2.33 16 -2.66 16 -3 16 C-3 11.05 -3 6.1 -3 1 C-1 0 -1 0 0 0 Z " fill="#222222" transform="translate(110,81)"/>
<path d="M0 0 C0.99 0.33 1.98 0.66 3 1 C2.67 5.62 2.34 10.24 2 15 C1.67 15 1.34 15 1 15 C0.67 13.02 0.34 11.04 0 9 C-0.33 9 -0.66 9 -1 9 C-1.09765625 2.84765625 -1.09765625 2.84765625 -1 1 C-0.67 0.67 -0.34 0.34 0 0 Z " fill="#292929" transform="translate(220,52)"/>
<path d="M0 0 C1.52519276 0.08937803 3.04681929 0.24537146 4.5625 0.4375 C5.80193359 0.59025391 5.80193359 0.59025391 7.06640625 0.74609375 C7.70449219 0.82988281 8.34257813 0.91367188 9 1 C8.67 1.99 8.34 2.98 8 4 C5.69 4.33 3.38 4.66 1 5 C0.34 3.68 -0.32 2.36 -1 1 C-0.67 0.67 -0.34 0.34 0 0 Z " fill="#E6E7EA" transform="translate(81,123)"/>
<path d="M0 0 C0.99 0 1.98 0 3 0 C3 2.31 3 4.62 3 7 C2.01 7.495 2.01 7.495 1 8 C1.33 8.66 1.66 9.32 2 10 C1.01 10 0.02 10 -1 10 C-1.66 8.02 -2.32 6.04 -3 4 C-2.01 3.67 -1.02 3.34 0 3 C0 2.01 0 1.02 0 0 Z " fill="#27282D" transform="translate(183,125)"/>
<path d="M0 0 C-0.825 0.763125 -1.65 1.52625 -2.5 2.3125 C-5.34055197 4.75434142 -5.34055197 4.75434142 -5 8 C-5.99 7.67 -6.98 7.34 -8 7 C-8.33 5.35 -8.66 3.7 -9 2 C-5.5647952 -0.29013653 -4.014669 -0.17842973 0 0 Z " fill="#4B4C51" transform="translate(146,111)"/>
<path d="M0 0 C0 0.66 0 1.32 0 2 C-2.97 2 -5.94 2 -9 2 C-8.34 2.66 -7.68 3.32 -7 4 C-8.98 4 -10.96 4 -13 4 C-13 3.34 -13 2.68 -13 2 C-13.66 1.67 -14.32 1.34 -15 1 C-10.05183286 -1.80396138 -5.38317715 -0.77350507 0 0 Z " fill="#070708" transform="translate(151,104)"/>
<path d="M0 0 C-0.33 0.99 -0.66 1.98 -1 3 C-0.34 3.66 0.32 4.32 1 5 C-2.3 4.67 -5.6 4.34 -9 4 C-9 3.34 -9 2.68 -9 2 C-5.86501708 0.14223235 -3.62528568 -0.20140476 0 0 Z " fill="#82878F" transform="translate(89,119)"/>
<path d="M0 0 C1.98 0 3.96 0 6 0 C5.67 0.99 5.34 1.98 5 3 C5 3.33 5 3.66 5 4 C5.66 4.33 6.32 4.66 7 5 C6.67 5.99 6.34 6.98 6 8 C5.34 8 4.68 8 4 8 C4 7.34 4 6.68 4 6 C2.68 6 1.36 6 0 6 C0 4 0 2 0 0 Z " fill="#26272C" transform="translate(175,120)"/>
<path d="M0 0 C1.60495567 0.11442461 3.20898119 0.24194694 4.8125 0.375 C5.70582031 0.44460937 6.59914063 0.51421875 7.51953125 0.5859375 C10 1 10 1 13 3 C12.67 3.33 12.34 3.66 12 4 C10.14227838 3.91015699 8.28752015 3.75388139 6.4375 3.5625 C4.91962891 3.40974609 4.91962891 3.40974609 3.37109375 3.25390625 C2.58863281 3.17011719 1.80617188 3.08632812 1 3 C0.67 2.01 0.34 1.02 0 0 Z " fill="#A5A7A9" transform="translate(91,146)"/>
<path d="M0 0 C2.31 0 4.62 0 7 0 C7 0.99 7 1.98 7 3 C7.99 3.33 8.98 3.66 10 4 C10 4.33 10 4.66 10 5 C6.7 5 3.4 5 0 5 C0.33 4.34 0.66 3.68 1 3 C1.66 3.33 2.32 3.66 3 4 C3 3.34 3 2.68 3 2 C2.01 1.34 1.02 0.68 0 0 Z " fill="#070809" transform="translate(199,111)"/>
<path d="M0 0 C-2.9954928 2.57945213 -5.14351301 4.17360993 -9 5 C-9.33 5.66 -9.66 6.32 -10 7 C-10.66 6.01 -11.32 5.02 -12 4 C-7.81413519 0.81076967 -5.29441695 -0.50423019 0 0 Z " fill="#E8ECF0" transform="translate(89,116)"/>
<path d="M0 0 C1.6254308 0.14095064 3.25034051 0.28792087 4.875 0.4375 C5.77992188 0.51871094 6.68484375 0.59992188 7.6171875 0.68359375 C10 1 10 1 12 2 C12 2.66 12 3.32 12 4 C7.71 3.67 3.42 3.34 -1 3 C-0.67 2.01 -0.34 1.02 0 0 Z " fill="#1C1C1E" transform="translate(126,104)"/>
<path d="M0 0 C0.53625 0.226875 1.0725 0.45375 1.625 0.6875 C1.295 1.6775 0.965 2.6675 0.625 3.6875 C-2.28982778 4.49717438 -3.83613217 4.90595993 -6.6875 3.75 C-7.244375 3.399375 -7.80125 3.04875 -8.375 2.6875 C-2.95961538 -0.38942308 -2.95961538 -0.38942308 0 0 Z " fill="#47484D" transform="translate(172.375,128.3125)"/>
<path d="M0 0 C1.81325551 0.11351517 3.62563357 0.24112961 5.4375 0.375 C6.95150391 0.47941406 6.95150391 0.47941406 8.49609375 0.5859375 C9.73552734 0.79089844 9.73552734 0.79089844 11 1 C11.33 1.66 11.66 2.32 12 3 C9.6739143 3.38063221 7.33944736 3.71269945 5 4 C4.67 3.67 4.34 3.34 4 3 C2.33382885 2.95936168 0.66611905 2.957279 -1 3 C-0.67 2.01 -0.34 1.02 0 0 Z " fill="#8E949D" transform="translate(103,115)"/>
<path d="M0 0 C2.31 0 4.62 0 7 0 C7 0.66 7 1.32 7 2 C7.66 2 8.32 2 9 2 C9.33 2.99 9.66 3.98 10 5 C4.5388601 4.64766839 4.5388601 4.64766839 2 4 C0.5 1.9375 0.5 1.9375 0 0 Z " fill="#09090A" transform="translate(110,100)"/>
<path d="M0 0 C0.66 0.66 1.32 1.32 2 2 C1.34 2.66 0.68 3.32 0 4 C0 4.99 0 5.98 0 7 C-1.5 8.6875 -1.5 8.6875 -3 10 C-3.66 8.35 -4.32 6.7 -5 5 C-3.33333333 3.33333333 -1.66666667 1.66666667 0 0 Z " fill="#5B5C61" transform="translate(158,122)"/>
<path d="M0 0 C0.66 0 1.32 0 2 0 C1.67 1.98 1.34 3.96 1 6 C0.34 6 -0.32 6 -1 6 C-1.33 6.99 -1.66 7.98 -2 9 C-4.0625 9.6875 -4.0625 9.6875 -6 10 C-4.69063102 7.07909997 -3.24380538 5.24380538 -1 3 C-0.67 2.01 -0.34 1.02 0 0 Z " fill="#292A2F" transform="translate(148,116)"/>
<path d="M0 0 C0.99 0.99 1.98 1.98 3 3 C-0.153368 3.70074844 -2.72724974 4 -6 4 C-8.25 2.5 -8.25 2.5 -10 1 C-9.36191406 1.01160156 -8.72382813 1.02320313 -8.06640625 1.03515625 C-7.24011719 1.04417969 -6.41382813 1.05320313 -5.5625 1.0625 C-4.32693359 1.07990234 -4.32693359 1.07990234 -3.06640625 1.09765625 C-1.00836062 1.23267348 -1.00836062 1.23267348 0 0 Z " fill="#D4D5D9" transform="translate(189,134)"/>
<path d="M0 0 C1.4540625 0.0309375 1.4540625 0.0309375 2.9375 0.0625 C2.2775 0.7225 1.6175 1.3825 0.9375 2.0625 C0.9375 3.0525 0.9375 4.0425 0.9375 5.0625 C-1.0425 5.0625 -3.0225 5.0625 -5.0625 5.0625 C-3.9375 0.08035714 -3.9375 0.08035714 0 0 Z " fill="#08080A" transform="translate(187.0625,108.9375)"/>
<path d="M0 0 C1.32 0.99 2.64 1.98 4 3 C1.03 5.475 1.03 5.475 -2 8 C-2 7.34 -2 6.68 -2 6 C-2.66 6 -3.32 6 -4 6 C-4 5.34 -4 4.68 -4 4 C-2.68 3.67 -1.36 3.34 0 3 C0 2.01 0 1.02 0 0 Z " fill="#E6E7EC" transform="translate(191,133)"/>
<path d="M0 0 C3.625 -0.1875 3.625 -0.1875 7 0 C6.13375 0.61875 6.13375 0.61875 5.25 1.25 C2.97483401 3.01957355 1.00004601 4.92852378 -1 7 C-1.625 5.1875 -1.625 5.1875 -2 3 C-1.34 2.01 -0.68 1.02 0 0 Z " fill="#222328" transform="translate(193,119)"/>
<path d="M0 0 C2.97 0 5.94 0 9 0 C9.33 0.99 9.66 1.98 10 3 C6.7 2.67 3.4 2.34 0 2 C0 1.34 0 0.68 0 0 Z " fill="#D2D3D7" transform="translate(190,116)"/>
<path d="M0 0 C-0.66 1.32 -1.32 2.64 -2 4 C-3.32 4 -4.64 4 -6 4 C-6.33 2.68 -6.66 1.36 -7 0 C-4.3333581 -1.33332095 -2.83319697 -0.67102033 0 0 Z " fill="#DADADA" transform="translate(215,119)"/>
<path d="M0 0 C0.33 0.66 0.66 1.32 1 2 C1.66 2.33 2.32 2.66 3 3 C1.515 5.475 1.515 5.475 0 8 C-0.99 7.67 -1.98 7.34 -3 7 C-3 5.33333333 -3 3.66666667 -3 2 C-2.01 1.34 -1.02 0.68 0 0 Z " fill="#515257" transform="translate(174,120)"/>
<path d="M0 0 C2.97 0 5.94 0 9 0 C9 0.99 9 1.98 9 3 C6.03 2.67 3.06 2.34 0 2 C0 1.34 0 0.68 0 0 Z " fill="#D0D1D6" transform="translate(169,113)"/>
<path d="M0 0 C3.96 0.33 7.92 0.66 12 1 C12 1.66 12 2.32 12 3 C10.37509046 3.02698189 8.75005367 3.04638757 7.125 3.0625 C5.76761719 3.07990234 5.76761719 3.07990234 4.3828125 3.09765625 C2 3 2 3 0 2 C0 1.34 0 0.68 0 0 Z " fill="#212227" transform="translate(158,114)"/>
<path d="M0 0 C2.64 0.33 5.28 0.66 8 1 C8 2.65 8 4.3 8 6 C6.68 5.67 5.36 5.34 4 5 C4 4.01 4 3.02 4 2 C2.68 1.34 1.36 0.68 0 0 Z " fill="#D4D5DA" transform="translate(156,135)"/>
<path d="M0 0 C0.66 0.33 1.32 0.66 2 1 C0.80100302 4.0831351 -0.47700477 7.06279492 -2 10 C-2.66 9.67 -3.32 9.34 -4 9 C-3.46930939 5.17902761 -2.50298434 2.93828597 0 0 Z " fill="#54555A" transform="translate(192,118)"/>
<path d="M0 0 C3.3 0.33 6.6 0.66 10 1 C8.68 1.33 7.36 1.66 6 2 C6 2.66 6 3.32 6 4 C4.35 4 2.7 4 1 4 C0.67 2.68 0.34 1.36 0 0 Z " fill="#0F0F12" transform="translate(120,102)"/>
<path d="M0 0 C2.72869407 0.03287583 5.2966618 0.56397771 8 1 C8 1.99 8 2.98 8 4 C4.7 3.34 1.4 2.68 -2 2 C-1.34 1.34 -0.68 0.68 0 0 Z " fill="#989A9D" transform="translate(112,150)"/>
<path d="M0 0 C0.99 0.33 1.98 0.66 3 1 C3 2.32 3 3.64 3 5 C0.36 4.67 -2.28 4.34 -5 4 C-2.6875 1.9375 -2.6875 1.9375 0 0 Z " fill="#E1E2E4" transform="translate(77,139)"/>
<path d="M0 0 C2.64 0 5.28 0 8 0 C8 0.99 8 1.98 8 3 C5.03 2.67 2.06 2.34 -1 2 C-0.67 1.34 -0.34 0.68 0 0 Z " fill="#C7C8CD" transform="translate(163,132)"/>
<path d="M0 0 C-0.66 1.32 -1.32 2.64 -2 4 C-3.65 3.67 -5.3 3.34 -7 3 C-6.67 2.01 -6.34 1.02 -6 0 C-3.50907189 -1.24546405 -2.58919267 -0.7767578 0 0 Z " fill="#434449" transform="translate(155,131)"/>
<path d="M0 0 C1.2065625 0.0309375 1.2065625 0.0309375 2.4375 0.0625 C2.7675 0.7225 3.0975 1.3825 3.4375 2.0625 C2.4475 2.5575 2.4475 2.5575 1.4375 3.0625 C1.1075 4.0525 0.7775 5.0425 0.4375 6.0625 C-2.07333114 4.80708443 -2.43375446 3.56186512 -3.5625 1.0625 C-2.5625 0.0625 -2.5625 0.0625 0 0 Z " fill="#4F5055" transform="translate(153.5625,114.9375)"/>
<path d="M0 0 C3.25696479 0.41755959 4.63443291 0.63443291 7 3 C6.01 3 5.02 3 4 3 C3.67 3.66 3.34 4.32 3 5 C1.68 3.68 0.36 2.36 -1 1 C-0.67 0.67 -0.34 0.34 0 0 Z " fill="#EEEFF4" transform="translate(169,138)"/>
<path d="M0 0 C2.475 0.99 2.475 0.99 5 2 C4.67 3.65 4.34 5.3 4 7 C2.35 6.67 0.7 6.34 -1 6 C-0.01 4.68 0.98 3.36 2 2 C1.34 2 0.68 2 0 2 C0 1.34 0 0.68 0 0 Z " fill="#282B2D" transform="translate(125,112)"/>
<path d="M0 0 C2.31 0 4.62 0 7 0 C5.68 0.33 4.36 0.66 3 1 C3.66 2.32 4.32 3.64 5 5 C3.35 4.67 1.7 4.34 0 4 C0 2.68 0 1.36 0 0 Z " fill="#323339" transform="translate(111,108)"/>
<path d="M0 0 C3.3 0.33 6.6 0.66 10 1 C10 1.33 10 1.66 10 2 C6.7 2.33 3.4 2.66 0 3 C0 2.01 0 1.02 0 0 Z " fill="#9E9FA2" transform="translate(133,154)"/>
<path d="M0 0 C0.66 0.33 1.32 0.66 2 1 C1.2884375 2.175625 1.2884375 2.175625 0.5625 3.375 C-0.33898023 4.88948678 -1.21179485 6.4235897 -2 8 C-4 7 -4 7 -5 4 C-3.35 2.68 -1.7 1.36 0 0 Z " fill="#5B5C61" transform="translate(150,126)"/>
<path d="M0 0 C1.65 0 3.3 0 5 0 C4.67 0.66 4.34 1.32 4 2 C3.34 2 2.68 2 2 2 C2 2.66 2 3.32 2 4 C1.01 4.33 0.02 4.66 -1 5 C-1.66 4.34 -2.32 3.68 -3 3 C-2.34 3 -1.68 3 -1 3 C-0.67 2.01 -0.34 1.02 0 0 Z " fill="#34353A" transform="translate(201,120)"/>
<path d="M0 0 C0.99 0.33 1.98 0.66 3 1 C2.01 2.485 2.01 2.485 1 4 C0.34 4 -0.32 4 -1 4 C-1 4.66 -1 5.32 -1 6 C-1.99 5.67 -2.98 5.34 -4 5 C-2.25 1.125 -2.25 1.125 0 0 Z " fill="#292A2F" transform="translate(133,117)"/>
<path d="M0 0 C-0.185625 0.61875 -0.37125 1.2375 -0.5625 1.875 C-1.23686176 4.04160178 -1.23686176 4.04160178 0 6 C-2.31 5.67 -4.62 5.34 -7 5 C-6.01 4.67 -5.02 4.34 -4 4 C-4 3.01 -4 2.02 -4 1 C-2 0 -2 0 0 0 Z " fill="#595A5F" transform="translate(131,118)"/>
<path d="M0 0 C1.65 0 3.3 0 5 0 C5.33 1.65 5.66 3.3 6 5 C3.03 4.505 3.03 4.505 0 4 C0.99 3.34 1.98 2.68 3 2 C2.01 1.34 1.02 0.68 0 0 Z " fill="#050505" transform="translate(152,105)"/>
<path d="M0 0 C0.66 0 1.32 0 2 0 C2.66 1.32 3.32 2.64 4 4 C3.34 4 2.68 4 2 4 C1.67 5.32 1.34 6.64 1 8 C0.34 7.34 -0.32 6.68 -1 6 C-0.625 2.875 -0.625 2.875 0 0 Z " fill="#2C2C2C" transform="translate(114,22)"/>
<path d="M0 0 C1.98 0 3.96 0 6 0 C4.515 1.485 4.515 1.485 3 3 C2.01 2.01 1.02 1.02 0 0 Z M0 4 C0.66 4.33 1.32 4.66 2 5 C0.68 5.99 -0.64 6.98 -2 8 C-1.34 6.68 -0.68 5.36 0 4 Z " fill="#D7D8DD" transform="translate(147,134)"/>
<path d="M0 0 C2.64 0.33 5.28 0.66 8 1 C7.67 1.66 7.34 2.32 7 3 C4.36 2.67 1.72 2.34 -1 2 C-0.67 1.34 -0.34 0.68 0 0 Z " fill="#54555A" transform="translate(162,134)"/>
<path d="M0 0 C0.66 0.99 1.32 1.98 2 3 C1.01 4.485 1.01 4.485 0 6 C-1.32 5.34 -2.64 4.68 -4 4 C-2.68 2.68 -1.36 1.36 0 0 Z " fill="#D6D6DD" transform="translate(195,129)"/>
<path d="M0 0 C0.66 1.98 1.32 3.96 2 6 C0.68 5.67 -0.64 5.34 -2 5 C-1.67 4.67 -1.34 4.34 -1 4 C-1.99 3.01 -2.98 2.02 -4 1 C-2 0 -2 0 0 0 Z " fill="#4B4C51" transform="translate(180,129)"/>
<path d="M0 0 C1.65 0.33 3.3 0.66 5 1 C3.02 1.99 3.02 1.99 1 3 C1.33 3.66 1.66 4.32 2 5 C0.02 5 -1.96 5 -4 5 C-3.01 4.67 -2.02 4.34 -1 4 C-0.26676204 1.98491642 -0.26676204 1.98491642 0 0 Z " fill="#35373C" transform="translate(128,125)"/>
<path d="M0 0 C-2.55068845 2.35448165 -3.71017358 2.98327924 -7.25 3.1875 C-8.1575 3.125625 -9.065 3.06375 -10 3 C-10 2.34 -10 1.68 -10 1 C-6.52674819 -0.1577506 -3.63932552 -0.06866652 0 0 Z " fill="#292A2B" transform="translate(116,101)"/>
<path d="M0 0 C0.66 0.33 1.32 0.66 2 1 C-1.465 3.97 -1.465 3.97 -5 7 C-5 6.01 -5 5.02 -5 4 C-2.5 1.8125 -2.5 1.8125 0 0 Z " fill="#CAC9CE" transform="translate(198,133)"/>
<path d="M0 0 C2.31 0 4.62 0 7 0 C7.33 0.66 7.66 1.32 8 2 C7.67 2.66 7.34 3.32 7 4 C6.34 4 5.68 4 5 4 C5 3.34 5 2.68 5 2 C3.35 1.67 1.7 1.34 0 1 C0 0.67 0 0.34 0 0 Z " fill="#D3D6DB" transform="translate(115,129)"/>
<path d="M0 0 C1.98 0.66 3.96 1.32 6 2 C5.01 3.32 4.02 4.64 3 6 C1.68 5.67 0.36 5.34 -1 5 C-0.01 4.34 0.98 3.68 2 3 C1.34 2.01 0.68 1.02 0 0 Z " fill="#6B727A" transform="translate(105,121)"/>
<path d="M0 0 C2.64 0.33 5.28 0.66 8 1 C6.36587557 2.70840281 5.13093906 3.93453047 3 5 C2.34 4.34 1.68 3.68 1 3 C1.66 3 2.32 3 3 3 C3 2.34 3 1.68 3 1 C2.01 0.67 1.02 0.34 0 0 Z " fill="#6B747D" transform="translate(90,120)"/>
<path d="M0 0 C1.65 0.33 3.3 0.66 5 1 C5 1.66 5 2.32 5 3 C3.02 3.33 1.04 3.66 -1 4 C-0.67 2.68 -0.34 1.36 0 0 Z " fill="#181818" transform="translate(211,113)"/>
<path d="M0 0 C0.99 0.33 1.98 0.66 3 1 C3.6875 3.0625 3.6875 3.0625 4 5 C2.35 5.33 0.7 5.66 -1 6 C-1 3 -1 3 0 0 Z " fill="#282C2F" transform="translate(120,112)"/>
</svg>
